<svg width="375" height="420" viewBox="0 0 375 420" fill="none" xmlns="http://www.w3.org/2000/svg">
<path d="M205.316 238.282L204.056 238.482C203.684 238.542 203.431 238.891 203.49 239.264L206.694 259.41C206.753 259.782 207.103 260.036 207.475 259.977L208.734 259.776C209.106 259.717 209.36 259.367 209.301 258.995L206.097 238.849C206.037 238.477 205.688 238.223 205.316 238.282Z" fill="#3A3768"/>
<path d="M202.8 149.191L138.536 159.413C132.201 160.421 127.882 166.376 128.89 172.715L153.443 327.081C154.451 333.419 160.404 337.741 166.74 336.733L231.004 326.512C237.34 325.504 241.659 319.548 240.65 313.21L216.098 158.844C215.089 152.505 209.136 148.184 202.8 149.191Z" fill="#9F2731"/>
<path d="M202.741 153.809L192.738 155.401L192.929 156.605C193.048 157.354 193.019 158.119 192.842 158.857C192.666 159.595 192.345 160.291 191.9 160.905C191.454 161.519 190.892 162.039 190.246 162.436C189.599 162.833 188.881 163.098 188.132 163.217L156.317 168.277C155.568 168.396 154.803 168.367 154.065 168.191C153.328 168.014 152.632 167.694 152.018 167.249C151.404 166.803 150.883 166.241 150.487 165.594C150.09 164.948 149.824 164.229 149.705 163.48L149.513 162.276L140.148 163.765C138.312 164.057 136.666 165.068 135.574 166.574C134.482 168.08 134.032 169.958 134.325 171.796L158.857 326.033C159.149 327.87 160.159 329.517 161.665 330.61C163.17 331.703 165.048 332.152 166.885 331.86L229.478 321.904C231.315 321.612 232.96 320.602 234.052 319.096C235.144 317.59 235.594 315.711 235.301 313.874L210.771 159.649C210.628 158.738 210.306 157.864 209.825 157.077C209.344 156.29 208.712 155.606 207.966 155.064C207.22 154.521 206.375 154.131 205.478 153.916C204.582 153.701 203.652 153.665 202.741 153.809Z" fill="#FBA53E"/>
<path opacity="0.1" d="M208.942 118.897C189.646 118.228 171.268 112.013 153.718 105.213C136.169 98.4122 118.786 90.877 99.952 87.2745C87.8379 84.9571 73.9827 84.6298 64.2241 91.109C54.8293 97.3561 51.7941 108.11 50.1631 118.1C48.9347 125.614 48.2132 133.524 51.5764 140.557C53.9139 145.441 58.0583 149.546 60.9265 154.226C70.9058 170.504 63.8514 190.578 53.0403 206.473C47.9717 213.931 42.0832 221.049 38.1684 228.98C34.2536 236.911 32.4438 246.011 35.8696 254.109C39.2626 262.141 47.3515 268.162 56.1143 272.401C73.9111 281.013 94.8744 283.476 115.331 284.871C160.6 287.962 206.107 286.624 251.495 285.285C268.293 284.788 285.163 284.285 301.686 281.694C310.863 280.254 320.336 277.973 327 272.457C335.455 265.458 337.551 253.606 331.883 244.827C322.378 230.105 296.105 226.449 289.453 210.649C285.798 201.951 289.551 192.265 294.867 184.197C306.269 166.896 325.378 151.715 326.382 131.939C327.074 118.355 317.888 104.752 303.684 98.323C288.797 91.588 268.15 92.4328 257.172 103.585C245.857 115.068 225.982 119.486 208.942 118.897Z" fill="#F37A20" fill-opacity="0.54"/>
<path opacity="0.1" d="M185.059 357.757C234.764 357.757 275.059 352.16 275.059 345.257C275.059 338.353 234.764 332.757 185.059 332.757C135.353 332.757 95.0586 338.353 95.0586 345.257C95.0586 352.16 135.353 357.757 185.059 357.757Z" fill="#F37A20" fill-opacity="0.54"/>
<g clip-path="url(#clip0_0_126)">
<path d="M201.028 264.815C201.074 265.092 201.008 265.376 200.845 265.605C200.682 265.834 200.434 265.988 200.157 266.034L180.569 269.29C180.291 269.336 180.007 269.27 179.779 269.106C179.55 268.943 179.396 268.695 179.35 268.418L177.296 256.063C175.658 256.069 174.077 255.457 172.87 254.349C171.663 253.242 170.917 251.72 170.781 250.087C170.645 248.455 171.129 246.831 172.137 245.539C173.144 244.247 174.602 243.382 176.218 243.117L207.221 237.963L202.246 208.038L156.255 215.682L168.337 288.369L214.328 280.725L209.359 250.831L199.011 252.551L201.028 264.815Z" fill="#FEF2B6"/>
<path d="M218.719 238.254L176.574 245.259C175.435 245.449 174.417 246.083 173.746 247.023C173.074 247.962 172.803 249.13 172.992 250.269C173.182 251.409 173.816 252.426 174.756 253.098C175.695 253.77 176.863 254.041 178.002 253.851L220.158 246.844C219.599 245.482 219.193 244.061 218.949 242.609C218.715 241.17 218.638 239.71 218.719 238.254Z" fill="#9F2731"/>
<path d="M235.805 221.687C232.259 222.281 228.974 223.929 226.378 226.416C223.781 228.904 221.994 232.115 221.248 235.632C221.171 236.01 221.094 236.388 221.035 236.741C220.975 237.095 220.954 237.485 220.916 237.835C220.79 239.309 220.849 240.794 221.092 242.253C221.341 243.708 221.768 245.127 222.363 246.478C222.516 246.818 222.661 247.17 222.83 247.474C222.998 247.779 223.2 248.154 223.4 248.454C225.064 251.25 227.459 253.54 230.328 255.076C233.197 256.611 236.431 257.334 239.681 257.167C242.93 257.001 246.073 255.95 248.769 254.128C251.466 252.307 253.614 249.784 254.982 246.831C256.35 243.879 256.887 240.609 256.533 237.374C256.18 234.14 254.95 231.063 252.977 228.475C251.004 225.888 248.361 223.888 245.335 222.692C242.309 221.496 239.014 221.148 235.805 221.687ZM245.298 247.328C243.547 247.614 241.75 247.376 240.135 246.642C238.52 245.908 237.158 244.712 236.222 243.205C235.286 241.698 234.818 239.947 234.877 238.174C234.936 236.4 235.519 234.684 236.552 233.242C237.586 231.8 239.023 230.697 240.684 230.072C242.344 229.447 244.152 229.327 245.88 229.729C247.608 230.131 249.179 231.037 250.392 232.33C251.606 233.624 252.409 235.249 252.7 236.999C252.892 238.163 252.853 239.354 252.585 240.503C252.317 241.652 251.825 242.737 251.138 243.696C250.451 244.656 249.581 245.47 248.579 246.093C247.577 246.716 246.462 247.135 245.298 247.328Z" fill="#9F2731"/>
<path d="M196.848 252.91L179.423 255.807L181.282 266.991L198.707 264.095L196.848 252.91Z" fill="#9F2731"/>
</g>
<defs>
<clipPath id="clip0_0_126">
<rect width="105.96" height="132.45" fill="white" transform="translate(148.383 200.632) rotate(-9.43721)"/>
</clipPath>
</defs>
</svg>
