<svg width="286" height="278" viewBox="0 0 286 278" fill="none" xmlns="http://www.w3.org/2000/svg">
<g filter="url(#filter0_d_56_943)">
<path opacity="0.1" d="M165.521 31.1209C147.698 30.4924 130.725 24.6566 114.516 18.2705C98.3078 11.8844 82.2536 4.80829 64.8583 1.42527C53.67 -0.750921 40.8734 -1.05821 31.8605 5.02618C23.1835 10.8927 20.3803 20.9914 18.874 30.3723C17.7394 37.4288 17.073 44.8569 20.1792 51.4609C22.3381 56.048 26.1658 59.9031 28.8149 64.2974C38.0316 79.5838 31.5163 98.4348 21.5313 113.361C16.85 120.364 11.4114 127.049 7.79576 134.497C4.18012 141.945 2.50862 150.49 5.67264 158.094C8.80637 165.637 16.2772 171.291 24.3704 175.272C40.8073 183.359 60.1687 185.672 79.062 186.983C120.872 189.885 162.902 188.628 204.822 187.371C220.336 186.904 235.917 186.432 251.178 183.999C259.654 182.647 268.402 180.504 274.557 175.325C282.366 168.752 284.302 157.622 279.067 149.378C270.289 135.553 246.023 132.12 239.879 117.283C236.503 109.115 239.97 100.019 244.88 92.4426C255.41 76.1952 273.059 61.9396 273.987 43.3679C274.626 30.6125 266.141 17.8375 253.023 11.8006C239.273 5.47595 220.204 6.26932 210.065 16.7424C199.614 27.5256 181.258 31.6741 165.521 31.1209Z" fill="#F37A20" fill-opacity="0.54"/>
<path d="M161.47 162.138L160.308 162.339C159.965 162.398 159.733 162.728 159.792 163.077L162.955 181.927C163.013 182.276 163.339 182.51 163.683 182.451L164.845 182.25C165.189 182.191 165.42 181.861 165.361 181.512L162.198 162.662C162.14 162.313 161.814 162.079 161.47 162.138Z" fill="#3A3768"/>
<path d="M158.26 78.6585L98.9367 88.8859C93.0881 89.8942 89.1537 95.5196 90.1489 101.451L114.385 245.891C115.381 251.822 120.929 255.813 126.777 254.804L186.101 244.577C191.949 243.569 195.884 237.943 194.888 232.012L170.652 87.572C169.657 81.6409 164.109 77.6502 158.26 78.6585Z" fill="#9F2731"/>
<path d="M158.251 82.9879L149.017 84.5799L149.206 85.7064C149.323 86.4076 149.304 87.1255 149.148 87.8189C148.992 88.5124 148.702 89.1678 148.297 89.7478C147.891 90.3279 147.376 90.8211 146.782 91.1993C146.188 91.5776 145.527 91.8334 144.835 91.9523L115.467 97.0154C114.775 97.1349 114.067 97.1152 113.383 96.9572C112.7 96.7993 112.053 96.5063 111.481 96.0949C110.908 95.6835 110.422 95.1618 110.048 94.5596C109.675 93.9575 109.422 93.2866 109.305 92.5854L109.116 91.4589L100.47 92.9493C98.7748 93.2416 97.2632 94.2051 96.2682 95.6277C95.2732 97.0503 94.8763 98.8156 95.1648 100.535L119.381 244.854C119.67 246.574 120.62 248.107 122.023 249.116C123.426 250.125 125.167 250.528 126.862 250.236L184.643 240.274C186.339 239.982 187.851 239.018 188.846 237.596C189.84 236.173 190.237 234.408 189.949 232.688L165.735 88.3804C165.593 87.5277 165.287 86.7118 164.834 85.9791C164.381 85.2465 163.79 84.6116 163.095 84.1108C162.4 83.6099 161.615 83.2529 160.783 83.0602C159.952 82.8676 159.092 82.843 158.251 82.9879Z" fill="#FBA53E"/>
<path d="M178.108 193.234L117.19 202.916L114.881 190.711L175.8 181.028L178.108 193.234Z" fill="#FEF2B6"/>
<path d="M182.241 215.046L121.316 224.73L119.007 212.524L179.933 202.841L182.241 215.046Z" fill="#FEF2B6"/>
<path d="M157.092 208.203L142.727 212.582C142.59 212.62 142.461 212.687 142.35 212.778C142.24 212.869 142.149 212.983 142.083 213.111C142.017 213.24 141.979 213.381 141.97 213.525C141.96 213.669 141.981 213.814 142.029 213.95L145.502 223.617C145.611 223.899 145.82 224.131 146.088 224.265C146.356 224.399 146.664 224.427 146.951 224.343L161.317 219.965C161.454 219.924 161.581 219.856 161.691 219.764C161.801 219.672 161.891 219.558 161.956 219.429C162.02 219.301 162.058 219.16 162.067 219.015C162.076 218.871 162.055 218.727 162.007 218.591L158.54 208.923C158.432 208.641 158.223 208.41 157.955 208.277C157.687 208.144 157.379 208.117 157.092 208.203ZM154.438 218.976L151.804 219.765L151.044 216.589C150.748 216.512 150.475 216.363 150.247 216.156C150.02 215.949 149.845 215.69 149.737 215.4C149.652 215.176 149.614 214.936 149.626 214.696C149.637 214.456 149.699 214.221 149.806 214.006C149.913 213.792 150.063 213.602 150.247 213.45C150.431 213.298 150.644 213.187 150.873 213.124C151.341 212.986 151.843 213.031 152.28 213.25C152.718 213.469 153.058 213.846 153.234 214.307C153.336 214.585 153.365 214.887 153.316 215.18C153.267 215.474 153.142 215.749 152.955 215.978L154.438 218.976Z" fill="#9F2731"/>
<path d="M155.556 207.896C155.302 207.97 155.029 207.946 154.791 207.828C154.554 207.709 154.368 207.505 154.272 207.255L153.933 206.31C153.458 205.022 152.539 203.953 151.346 203.3C150.152 202.647 148.766 202.455 147.444 202.759C146.775 202.905 146.146 203.196 145.598 203.61C145.05 204.025 144.596 204.554 144.268 205.162C143.94 205.771 143.744 206.443 143.695 207.135C143.646 207.826 143.745 208.52 143.984 209.169L144.373 210.26C144.417 210.381 144.436 210.509 144.429 210.638C144.421 210.766 144.387 210.892 144.329 211.006C144.271 211.121 144.19 211.222 144.091 211.302C143.992 211.383 143.877 211.442 143.755 211.476C143.5 211.554 143.226 211.531 142.988 211.412C142.749 211.293 142.564 211.087 142.47 210.835L142.142 209.916C141.821 209.06 141.673 208.146 141.708 207.231C141.744 206.315 141.962 205.417 142.348 204.588C142.735 203.76 143.283 203.02 143.959 202.412C144.636 201.804 145.426 201.341 146.283 201.051C148.142 200.422 150.169 200.544 151.942 201.389C153.715 202.235 155.099 203.74 155.806 205.593L156.194 206.677C156.239 206.799 156.258 206.929 156.249 207.059C156.241 207.189 156.205 207.316 156.145 207.431C156.084 207.546 156.001 207.647 155.899 207.727C155.798 207.807 155.681 207.865 155.556 207.896Z" fill="#9F2731"/>
<path d="M174.845 233.83L135.185 240.134L133.687 232.186L173.34 225.883L174.845 233.83Z" fill="#9F2731"/>
<path d="M148.711 191.62C148.768 191.909 148.766 192.208 148.706 192.496C148.646 192.785 148.528 193.059 148.361 193.3C148.193 193.542 147.979 193.746 147.731 193.901C147.483 194.056 147.207 194.159 146.919 194.203C146.325 194.292 145.72 194.147 145.229 193.798C144.738 193.448 144.397 192.921 144.279 192.324C144.222 192.035 144.223 191.736 144.284 191.448C144.344 191.159 144.461 190.885 144.629 190.644C144.796 190.402 145.01 190.198 145.258 190.043C145.506 189.888 145.782 189.785 146.07 189.742C146.664 189.65 147.27 189.794 147.762 190.144C148.254 190.494 148.594 191.023 148.711 191.62Z" fill="#9F2731"/>
<path d="M139.148 193.14C139.206 193.43 139.205 193.728 139.145 194.017C139.085 194.307 138.968 194.58 138.8 194.822C138.632 195.064 138.418 195.268 138.17 195.423C137.921 195.578 137.644 195.68 137.356 195.723C136.763 195.812 136.159 195.667 135.668 195.317C135.178 194.967 134.839 194.439 134.722 193.843C134.665 193.554 134.667 193.256 134.727 192.967C134.787 192.678 134.905 192.404 135.072 192.163C135.24 191.921 135.454 191.717 135.702 191.562C135.95 191.407 136.226 191.304 136.514 191.261C137.107 191.169 137.712 191.314 138.203 191.664C138.694 192.014 139.032 192.543 139.148 193.14Z" fill="#9F2731"/>
<path d="M129.645 194.65C129.702 194.94 129.7 195.238 129.64 195.527C129.58 195.816 129.462 196.089 129.295 196.331C129.127 196.572 128.913 196.777 128.665 196.932C128.417 197.087 128.141 197.189 127.853 197.233C127.26 197.324 126.655 197.179 126.164 196.829C125.673 196.479 125.335 195.95 125.219 195.354C125.162 195.064 125.164 194.766 125.224 194.477C125.284 194.188 125.402 193.915 125.569 193.673C125.737 193.432 125.951 193.227 126.199 193.072C126.447 192.917 126.723 192.814 127.011 192.771C127.604 192.68 128.21 192.824 128.7 193.174C129.191 193.525 129.529 194.053 129.645 194.65Z" fill="#9F2731"/>
<path d="M158.241 190.105C158.298 190.395 158.296 190.693 158.236 190.982C158.176 191.27 158.058 191.544 157.891 191.785C157.723 192.027 157.509 192.231 157.261 192.387C157.014 192.542 156.737 192.644 156.449 192.688C155.856 192.779 155.251 192.634 154.76 192.284C154.269 191.934 153.931 191.405 153.816 190.808C153.761 190.519 153.764 190.222 153.826 189.935C153.887 189.647 154.006 189.375 154.175 189.136C154.343 188.896 154.558 188.693 154.806 188.54C155.054 188.387 155.33 188.287 155.617 188.245C156.206 188.156 156.806 188.299 157.295 188.645C157.783 188.991 158.121 189.514 158.241 190.105Z" fill="#9F2731"/>
<path d="M167.771 188.591C167.829 188.88 167.828 189.179 167.768 189.468C167.708 189.757 167.591 190.031 167.423 190.273C167.256 190.515 167.041 190.719 166.793 190.874C166.544 191.029 166.268 191.131 165.979 191.173C165.386 191.263 164.782 191.117 164.292 190.768C163.801 190.418 163.463 189.89 163.346 189.294C163.289 189.004 163.29 188.706 163.351 188.417C163.411 188.129 163.528 187.855 163.696 187.614C163.863 187.372 164.077 187.168 164.325 187.012C164.573 186.857 164.849 186.755 165.137 186.711C165.731 186.62 166.336 186.765 166.826 187.115C167.317 187.465 167.655 187.994 167.771 188.591Z" fill="#9F2731"/>
</g>
<defs>
<filter id="filter0_d_56_943" x="0" y="0" width="286" height="262.96" filterUnits="userSpaceOnUse" color-interpolation-filters="sRGB">
<feFlood flood-opacity="0" result="BackgroundImageFix"/>
<feColorMatrix in="SourceAlpha" type="matrix" values="0 0 0 0 0 0 0 0 0 0 0 0 0 0 0 0 0 0 127 0" result="hardAlpha"/>
<feOffset dy="4"/>
<feGaussianBlur stdDeviation="2"/>
<feComposite in2="hardAlpha" operator="out"/>
<feColorMatrix type="matrix" values="0 0 0 0 0 0 0 0 0 0 0 0 0 0 0 0 0 0 0.25 0"/>
<feBlend mode="normal" in2="BackgroundImageFix" result="effect1_dropShadow_56_943"/>
<feBlend mode="normal" in="SourceGraphic" in2="effect1_dropShadow_56_943" result="shape"/>
</filter>
</defs>
</svg>
